<svg xmlns="http://www.w3.org/2000/svg" xmlns:xlink="http://www.w3.org/1999/xlink" version="1.1" width="256" height="256" viewBox="0 0 256 256" xml:space="preserve">
<desc>Created with Fabric.js 1.7.22</desc>
<defs>
</defs>
<g transform="translate(128 128) scale(0.72 0.72)" style="">
	<g style="stroke: none; stroke-width: 0; stroke-dasharray: none; stroke-linecap: butt; stroke-linejoin: miter; stroke-miterlimit: 10; fill: none; fill-rule: nonzero; opacity: 1;" transform="translate(-175.05 -175.05000000000004) scale(3.89 3.89) matrix(1 0 0 -1 0 90)" >
	<path d="M 30.228 46.471 l 0 9.624 L 1 36.328 l 29.228 -19.767 l 0 8.977 C 53.006 25.539 89 43.847 89 73.438 C 78.647 50.529 50.578 46.471 30.228 46.471 z" style="stroke: none; stroke-width: 1; stroke-dasharray: none; stroke-linecap: butt; stroke-linejoin: miter; stroke-miterlimit: 10; fill: rgb(174,214,82); fill-rule: nonzero; opacity: 1;" transform=" matrix(1 0 0 1 0 0) " stroke-linecap="round" />
	<path d="M 89 74.438 c 0.07 0 0.141 -0.007 0.211 -0.022 c 0.461 -0.1 0.79 -0.507 0.79 -0.978 c 0 -13.545 -7.554 -26.283 -21.271 -35.866 C 57.533 29.75 43.266 24.812 31.228 24.549 v -7.987 c 0 -0.37 -0.204 -0.71 -0.531 -0.883 c -0.325 -0.173 -0.722 -0.153 -1.029 0.055 L 0.439 35.5 C 0.165 35.686 0 35.997 0 36.329 s 0.165 0.643 0.439 0.828 l 29.228 19.766 c 0.308 0.208 0.704 0.228 1.029 0.055 c 0.327 -0.173 0.531 -0.513 0.531 -0.883 v -8.62 c 29.909 0.193 49.038 9.064 56.861 26.376 C 88.253 74.214 88.613 74.438 89 74.438 z M 29.228 18.445 v 7.093 c 0 0.552 0.447 1 1 1 c 21.717 0 53.929 16.674 57.456 42.269 C 78.349 53.517 58.62 45.472 30.228 45.472 c -0.553 0 -1 0.448 -1 1 v 7.739 L 2.785 36.329 L 29.228 18.445 z" style="stroke: none; stroke-width: 1; stroke-dasharray: none; stroke-linecap: butt; stroke-linejoin: miter; stroke-miterlimit: 10; fill: rgb(174,214,82); fill-rule: nonzero; opacity: 1;" transform=" matrix(1 0 0 1 0 0) " stroke-linecap="round" />
</g>
</g>
</svg>